<svg xmlns="http://www.w3.org/2000/svg" width="214" height="45" viewBox="0 0 214 45">
    <g fill="none" fill-rule="nonzero">
        <path fill="#E92629" d="M24.955.745c-1.99-.005-3.611 1.612-3.627 3.62 0 1.993 1.603 3.61 3.58 3.61 1.976 0 3.579-1.617 3.579-3.61a3.558 3.558 0 0 0-1-2.575A3.498 3.498 0 0 0 24.954.726v.02zM22.081 32.405h5.633V9.789l-5.633.929zM9.817 9.387c-2.687 0-5.105.765-7.59 2.013l-.634.329 1.511 3.387.855-.406a12.17 12.17 0 0 1 5.316-1.254c2.044.083 2.879 1.026 2.879 2.996v1.156H8.795c-5.364 0-8.699 2.87-8.795 7.316 0 4.234 3.498 7.873 8.358 7.873 3.925 0 7.25-1.282 9.491-3.547V17.197c0-5.88-4.145-7.81-8.032-7.81zm2.327 18.75c-.889.51-1.9.762-2.922.73-2.265 0-3.282-1.75-3.248-3.793.043-1.689 1.084-3.605 3.91-3.605h2.26v6.668zM69.152 28.824a4.227 4.227 0 0 1-3.268-1.253c-1.012-1.108-1.463-3.387-1.339-5.782H76.68v-.566C76.575 13.21 73.868 9.56 67.933 9.56c-6.617 0-9.193 6.14-9.246 11.908-.043 3.649 1.324 7.326 3.838 9.416a9.304 9.304 0 0 0 6.065 1.98 13.445 13.445 0 0 0 3.997-.596 15.97 15.97 0 0 0 4.232-2.075l-1.588-3.29a10.814 10.814 0 0 1-6.08 1.92zM67.933 13.79c2.505 0 2.879 2.739 2.879 4.442h-6.103c.1-2.192 1.002-4.442 3.224-4.442zM32.244 13.839v18.58h5.758V14.932c.748-.74 2.337-1.384 3.838-1.451a7.359 7.359 0 0 1 2.308.237l1.584-3.59a9.606 9.606 0 0 0-3.79-.688 13.042 13.042 0 0 0-9.698 4.399zM85.787 32.927V3.523l-5.647.058v29.346zM52.991 3.552l-5.757.938v21.136c0 4.732 2.744 6.972 7.34 6.972.72-.007 1.438-.076 2.146-.208v-3.493h-.811c-2.428-.087-2.903-1.452-2.903-2.99V13.973h3.709v-4.17H53l-.01-6.252z"/>
        <path fill="#148DCE" d="M145.294 32.768V3.605h6.09v29.129zM156.849 11.768a24.593 24.593 0 0 1 6.928-1.133c4.251 0 7.457 1.05 8.378 5.459.288 1.367.422 2.763.398 4.16v6.993c0 .968.24 1.616 1.123 1.616a4.196 4.196 0 0 0 1.041-.203l.442 3.716c-1.202.47-2.478.716-3.767.726-2 0-3.205-.886-3.685-2.42a8.864 8.864 0 0 1-6.05 2.386c-4.41 0-6.493-3.03-6.493-6.828 0-4.93 2.807-7.558 8.296-7.558 1.107-.003 2.21.133 3.282.407v-.61c0-2.42-1.64-3.31-3.886-3.31-1.76.043-3.502.356-5.168.93l-.84-4.331zm9.893 11.032a5.593 5.593 0 0 0-2.24-.484c-2.088 0-3.359.93-3.359 3.315 0 1.858.801 2.99 2.4 2.99a4.489 4.489 0 0 0 3.204-1.66l-.005-4.161zM188.445 10.635c4.045 0 7.053 2.71 7.053 9.62 0 7.553-2.965 12.847-10.378 12.847a18.142 18.142 0 0 1-7.855-1.897V3.625h6.05v8.709a9.542 9.542 0 0 1 5.13-1.699zm-2.006 4.84a6.203 6.203 0 0 0-3.124 1.054v11.27a4.319 4.319 0 0 0 2.366.61c2.802 0 3.603-2.628 3.603-7.196 0-4.234-.96-5.73-2.845-5.73v-.009zM199.154 26.192c1.723 1.253 4.045 2.264 6.238 2.264 1.761 0 2.524-.687 2.524-1.819 0-1.814-1.843-2.26-4.127-2.87-3.09-.807-5.853-2.1-5.853-6.382s3.358-6.75 7.936-6.75c5.326 0 7.413 2.71 8.094 4.975l-4.567 1.775c-.725-1.533-1.886-2.341-3.45-2.341-1.282 0-2.16.604-2.16 1.775 0 1.496 1.68 2.062 3.724 2.628 3.123.89 6.333 2.061 6.333 6.668 0 4.606-3.646 7.03-8.454 7.03-3.33 0-6.574-1.214-7.816-2.1l1.578-4.853zM126.845 41.521a27.213 27.213 0 0 1-13.67 3.3c-11.141 0-21.145-7.074-21.145-19.766C92.03 9.256 105.796 0 119.35 0c12.562 0 20.686 7.815 20.633 17.071-.067 8.589-7.293 16.539-16.607 17.245-3.325.324-4.764-1.548-4.764-1.548-.792-.91-1.238-2.221-1.819-4.103l-1.588-4.868c-4.558 7.03-6.914 9.488-9.371 9.488a2.255 2.255 0 0 1-1.676-.701 2.295 2.295 0 0 1-.627-1.718c0-1.205 1.075-2.361 2.049-2.361.33.034.629.21.82.484.303.327.732.504 1.176.484 1.482 0 3.891-2.904 7.068-7.583l-1.742-5.225c-.715-2.459-1.075-3.068-1.69-3.16-.824-.049-1.256.039-2.355.832-.203.15-.388.321-.552.513a4.062 4.062 0 0 0-.365.552c-.076.13-.427.116-.379-.349.048-.323.142-.638.279-.934a10.22 10.22 0 0 1 1.852-2.651 4.366 4.366 0 0 1 3.464-1.38c1.44.141 2.049 1.859 3.277 5.473l.926 2.763c4.247-6.077 6.45-8.226 8.704-8.226a2.097 2.097 0 0 1 1.53.619c.405.407.63.963.62 1.54-.048 1.204-1.228 2.21-1.996 2.21a1.053 1.053 0 0 1-.768-.4 1.436 1.436 0 0 0-1.18-.606c-.715 0-1.737.857-3.071 2.512a51.565 51.565 0 0 0-3.33 4.117l1.64 5.023c.62 1.935 1.167 3.803 2.256 5.129 0 0 2.006 2.42 5.796 1.045 2.231-.88 5.14-3.547 6.655-6.885 1.258-2.763 1.33-6.223 1.33-7.428 0-9.256-7.38-14.477-16.751-14.477-13.195 0-22.139 9.256-22.139 21.88 0 8.197 4.827 17.454 18.948 17.454 3.85.023 7.663-.751 11.204-2.275 0 0 1.2-.483 1.982-.885s1.406.068 1.214.76c-.192.692-3.158 2.09-3.158 2.09z"/>
    </g>
</svg>
